<mxfile host="www.draw.io" modified="2019-11-15T09:31:26.104Z" agent="Mozilla/5.0 (Windows NT 10.0; Win64; x64) AppleWebKit/537.36 (KHTML, like Gecko) Chrome/78.0.3904.97 Safari/537.36" etag="cHEAFa7AFi5hPf3lGdyE" version="12.2.6" type="github" pages="1">
  <diagram id="WUf7EX0-qaiWi2m4oO2A" name="Page-1">
    <mxGraphModel dx="1024" dy="566" grid="1" gridSize="10" guides="1" tooltips="1" connect="1" arrows="1" fold="1" page="1" pageScale="1" pageWidth="850" pageHeight="1100" math="0" shadow="0">
      <root>
        <mxCell id="0"/>
        <mxCell id="1" parent="0"/>
        <mxCell id="2HjuoT_9diq5eK6VVBws-1" value="" style="rounded=0;whiteSpace=wrap;html=1;" vertex="1" parent="1">
          <mxGeometry x="40" y="40" width="760" height="440" as="geometry"/>
        </mxCell>
        <mxCell id="2HjuoT_9diq5eK6VVBws-2" value="" style="rounded=0;whiteSpace=wrap;html=1;fillColor=#FFEA2B;gradientColor=#333333;gradientDirection=east;" vertex="1" parent="1">
          <mxGeometry x="275" y="60" width="300" height="400" as="geometry"/>
        </mxCell>
        <mxCell id="2HjuoT_9diq5eK6VVBws-3" value="Anna er Stumpet" style="text;html=1;align=center;verticalAlign=middle;whiteSpace=wrap;rounded=0;fontColor=#FFFFFF;" vertex="1" parent="1">
          <mxGeometry x="285" y="85" width="120" height="20" as="geometry"/>
        </mxCell>
        <mxCell id="2HjuoT_9diq5eK6VVBws-4" value="Jer er enig" style="text;html=1;align=center;verticalAlign=middle;whiteSpace=wrap;rounded=0;fontColor=#FFFFFF;" vertex="1" parent="1">
          <mxGeometry x="435" y="125" width="120" height="20" as="geometry"/>
        </mxCell>
        <mxCell id="2HjuoT_9diq5eK6VVBws-5" value="Anna er metget Stumpet" style="text;html=1;align=center;verticalAlign=middle;whiteSpace=wrap;rounded=0;fontColor=#FFFFFF;" vertex="1" parent="1">
          <mxGeometry x="295" y="155" width="120" height="20" as="geometry"/>
        </mxCell>
        <mxCell id="2HjuoT_9diq5eK6VVBws-6" value="Du kan ikke stave&lt;br&gt;" style="text;html=1;align=center;verticalAlign=middle;whiteSpace=wrap;rounded=0;fontColor=#FFFFFF;" vertex="1" parent="1">
          <mxGeometry x="415" y="205" width="120" height="20" as="geometry"/>
        </mxCell>
        <mxCell id="2HjuoT_9diq5eK6VVBws-7" value="Nickname" style="verticalLabelPosition=bottom;shadow=0;dashed=0;align=center;html=1;verticalAlign=top;strokeWidth=1;shape=mxgraph.mockup.containers.userMale;strokeColor=#666666;strokeColor2=#008cff;fillColor=#ffffff;gradientColor=#CC00CC;fontColor=#000000;" vertex="1" parent="1">
          <mxGeometry x="60" y="65" width="160" height="190" as="geometry"/>
        </mxCell>
        <mxCell id="2HjuoT_9diq5eK6VVBws-9" value="Advertisement" style="rounded=0;whiteSpace=wrap;html=1;fillColor=#ffffff;gradientColor=#CC921D;fontColor=#000000;" vertex="1" parent="1">
          <mxGeometry x="600" y="60" width="180" height="400" as="geometry"/>
        </mxCell>
        <mxCell id="2HjuoT_9diq5eK6VVBws-12" value="-Gender&lt;br&gt;-Age&lt;br&gt;-Jobtitle/Weight&lt;br&gt;" style="strokeWidth=1;shadow=0;dashed=0;align=center;html=1;shape=mxgraph.mockup.text.bulletedList;textColor=#666666;mainText=,,,,;textSize=17;bulletStyle=none;strokeColor=none;fillColor=none;align=left;verticalAlign=top;fontSize=17;fontColor=#666666;" vertex="1" parent="1">
          <mxGeometry x="60" y="280" width="160" height="80" as="geometry"/>
        </mxCell>
      </root>
    </mxGraphModel>
  </diagram>
</mxfile>
